<svg width="1728" height="1117" viewBox="0 0 1728 1117" fill="none" xmlns="http://www.w3.org/2000/svg">
<g clip-path="url(#clip0_2_3)">
<rect width="1728" height="1117" fill="black"/>
<ellipse cx="43.5" cy="728" rx="1.5" ry="2" fill="#6F6F6F"/>
<circle cx="601.053" cy="1049.1" r="1.49117" transform="rotate(-18.8579 601.053 1049.1)" fill="#6F6F6F"/>
<ellipse cx="142" cy="776" rx="1" ry="2" fill="#6F6F6F"/>
<ellipse cx="563.04" cy="658.691" rx="2.23676" ry="2.98234" transform="rotate(-18.8579 563.04 658.691)" fill="#6F6F6F"/>
<ellipse cx="976.5" cy="1064" rx="2.5" ry="3" fill="#6F6F6F"/>
<circle cx="126.562" cy="85.4815" r="1.49117" transform="rotate(10.9139 126.562 85.4815)" fill="#6F6F6F"/>
<circle cx="676.969" cy="3.30018" r="1.49117" transform="rotate(10.9139 676.969 3.30018)" fill="#6F6F6F"/>
<ellipse cx="1344" cy="940" rx="2" ry="1" fill="#6F6F6F"/>
<ellipse cx="112" cy="883.5" rx="2" ry="1.5" fill="#6F6F6F"/>
<ellipse cx="422.5" cy="503.5" rx="1.5" ry="2.5" fill="#6F6F6F"/>
<ellipse cx="1705" cy="24.5" rx="1" ry="2.5" fill="#6F6F6F"/>
<ellipse cx="843.353" cy="941.917" rx="1.49117" ry="2.23676" transform="rotate(-18.8579 843.353 941.917)" fill="#6F6F6F"/>
<ellipse cx="1595.01" cy="565.118" rx="1.49117" ry="2.23676" transform="rotate(30 1595.01 565.118)" fill="#6F6F6F"/>
<circle cx="577.483" cy="164.835" r="1.49117" transform="rotate(10.9139 577.483 164.835)" fill="#6F6F6F"/>
<circle cx="1276.5" cy="1117.5" r="1.5" fill="#6F6F6F"/>
<circle cx="132.208" cy="56.1975" r="1.49117" transform="rotate(10.9139 132.208 56.1975)" fill="#6F6F6F"/>
<ellipse cx="1344" cy="907" rx="2" ry="1" fill="#6F6F6F"/>
<ellipse cx="112" cy="850.5" rx="2" ry="1.5" fill="#6F6F6F"/>
<circle cx="381.813" cy="415.648" r="1.49117" transform="rotate(10.9139 381.813 415.648)" fill="#6F6F6F"/>
<circle cx="832.99" cy="911.578" r="1.49117" transform="rotate(-18.8579 832.99 911.578)" fill="#6F6F6F"/>
<circle cx="130.055" cy="83.1177" r="1.49117" transform="rotate(10.9139 130.055 83.1177)" fill="#6F6F6F"/>
<circle cx="680.462" cy="0.936471" r="1.49117" transform="rotate(10.9139 680.462 0.936471)" fill="#6F6F6F"/>
<ellipse cx="1347" cy="937" rx="1" ry="2" fill="#6F6F6F"/>
<ellipse cx="115" cy="880.5" rx="1" ry="1.5" fill="#6F6F6F"/>
<ellipse cx="425" cy="499.5" rx="1" ry="1.5" fill="#6F6F6F"/>
<ellipse cx="1708" cy="21" rx="2" ry="1" fill="#6F6F6F"/>
<circle cx="844.97" cy="937.426" r="1.49117" transform="rotate(-18.8579 844.97 937.426)" fill="#6F6F6F"/>
<circle cx="425.918" cy="896.192" r="1.49117" transform="rotate(-18.8579 425.918 896.192)" fill="#6F6F6F"/>
<circle cx="99" cy="582" r="1" fill="#6F6F6F"/>
<circle cx="606.031" cy="892.976" r="1.49117" transform="rotate(-18.8579 606.031 892.976)" fill="#6F6F6F"/>
<ellipse cx="233" cy="804" rx="1" ry="2" fill="#6F6F6F"/>
<circle cx="389.5" cy="1033.5" r="1.5" fill="#6F6F6F"/>
<ellipse cx="880.67" cy="822.808" rx="2.23676" ry="2.98234" transform="rotate(-18.8579 880.67 822.808)" fill="#6F6F6F"/>
<ellipse cx="1444" cy="968.5" rx="1" ry="1.5" fill="#6F6F6F"/>
<ellipse cx="357.023" cy="319.749" rx="2.23676" ry="2.98234" transform="rotate(10.9139 357.023 319.749)" fill="#6F6F6F"/>
<ellipse cx="763.854" cy="840.647" rx="2.23676" ry="2.98234" transform="rotate(-18.8579 763.854 840.647)" fill="#6F6F6F"/>
<circle cx="1192.62" cy="760.381" r="1.49117" transform="rotate(-18.8579 1192.62 760.381)" fill="#6F6F6F"/>
<circle cx="320.776" cy="385.655" r="1.49117" transform="rotate(10.9139 320.776 385.655)" fill="#6F6F6F"/>
<circle cx="765.117" cy="915.852" r="1.49117" transform="rotate(-18.8579 765.117 915.852)" fill="#6F6F6F"/>
<circle cx="1563.17" cy="489.05" r="1.49117" transform="rotate(30 1563.17 489.05)" fill="#6F6F6F"/>
<ellipse cx="120" cy="1080" rx="1" ry="2" fill="#6F6F6F"/>
<circle cx="871.183" cy="303.474" r="1.49117" transform="rotate(10.9139 871.183 303.474)" fill="#6F6F6F"/>
<circle cx="1202.07" cy="571.215" r="1.49117" transform="rotate(-18.8579 1202.07 571.215)" fill="#6F6F6F"/>
<ellipse cx="126.5" cy="594" rx="2.5" ry="2" fill="#6F6F6F"/>
<ellipse cx="635.993" cy="895.349" rx="2.23676" ry="1.49117" transform="rotate(-18.8579 635.993 895.349)" fill="#6F6F6F"/>
<ellipse cx="298.454" cy="972.819" rx="2.23676" ry="1.49117" transform="rotate(-18.8579 298.454 972.819)" fill="#6F6F6F"/>
<ellipse cx="668.217" cy="789.009" rx="1.49117" ry="2.23676" transform="rotate(-18.8579 668.217 789.009)" fill="#6F6F6F"/>
<ellipse cx="1722.5" cy="1042.5" rx="1.5" ry="2.5" fill="#6F6F6F"/>
<circle cx="326.423" cy="356.371" r="1.49117" transform="rotate(10.9139 326.423 356.371)" fill="#6F6F6F"/>
<circle cx="755.477" cy="887.629" r="1.49117" transform="rotate(-18.8579 755.477 887.629)" fill="#6F6F6F"/>
<circle cx="1578.08" cy="463.223" r="1.49117" transform="rotate(30 1578.08 463.223)" fill="#6F6F6F"/>
<circle cx="877.395" cy="271.261" r="1.49117" transform="rotate(10.9139 877.395 271.261)" fill="#6F6F6F"/>
<circle cx="1191.47" cy="540.17" r="1.49117" transform="rotate(-18.8579 1191.47 540.17)" fill="#6F6F6F"/>
<circle cx="657.854" cy="758.67" r="1.49117" transform="rotate(-18.8579 657.854 758.67)" fill="#6F6F6F"/>
<ellipse cx="396.149" cy="353.11" rx="2.23676" ry="2.98234" transform="rotate(10.9139 396.149 353.11)" fill="#6F6F6F"/>
<ellipse cx="814.382" cy="850.177" rx="2.23676" ry="2.98234" transform="rotate(-18.8579 814.382 850.177)" fill="#6F6F6F"/>
<circle cx="324.269" cy="383.291" r="1.49117" transform="rotate(10.9139 324.269 383.291)" fill="#6F6F6F"/>
<circle cx="766.975" cy="912.066" r="1.49117" transform="rotate(-18.8579 766.975 912.066)" fill="#6F6F6F"/>
<circle cx="1567.24" cy="487.959" r="1.49117" transform="rotate(30 1567.24 487.959)" fill="#6F6F6F"/>
<circle cx="1219.98" cy="762.065" r="1.49117" transform="rotate(-18.8579 1219.98 762.065)" fill="#6F6F6F"/>
<circle cx="874.677" cy="301.11" r="1.49117" transform="rotate(10.9139 874.677 301.11)" fill="#6F6F6F"/>
<circle cx="669.834" cy="784.518" r="1.49117" transform="rotate(-18.8579 669.834 784.518)" fill="#6F6F6F"/>
<circle cx="1725.5" cy="1038.5" r="1.5" fill="#6F6F6F"/>
<circle cx="613.359" cy="278.058" r="1.49117" transform="rotate(10.9139 613.359 278.058)" fill="#6F6F6F"/>
<circle cx="936.736" cy="592.508" r="1.49117" transform="rotate(-18.8579 936.736 592.508)" fill="#6F6F6F"/>
<circle cx="949.015" cy="435.595" r="1.49117" transform="rotate(-21.4506 949.015 435.595)" fill="#6F6F6F"/>
<circle cx="153.351" cy="237.955" r="1.49117" transform="rotate(10.9139 153.351 237.955)" fill="#6F6F6F"/>
<circle cx="546.45" cy="870.781" r="1.49117" transform="rotate(-18.8579 546.45 870.781)" fill="#6F6F6F"/>
<circle cx="1581" cy="1080" r="2" fill="#6F6F6F"/>
<circle cx="937.018" cy="405.062" r="1.49117" transform="rotate(-21.4506 937.018 405.062)" fill="#6F6F6F"/>
<circle cx="839.11" cy="538.993" r="1.49117" transform="rotate(-82.2839 839.11 538.993)" fill="#6F6F6F"/>
<ellipse cx="1418" cy="93" rx="1" ry="2" fill="#6F6F6F"/>
<circle cx="985.252" cy="618.074" r="1.49117" transform="rotate(-70.2992 985.252 618.074)" fill="#6F6F6F"/>
<ellipse cx="950.427" cy="431.035" rx="1.49117" ry="2.23676" transform="rotate(-21.4506 950.427 431.035)" fill="#6F6F6F"/>
<circle cx="430.895" cy="740.068" r="1.49117" transform="rotate(-18.8579 430.895 740.068)" fill="#6F6F6F"/>
<ellipse cx="825" cy="1097.5" rx="1" ry="1.5" fill="#6F6F6F"/>
<circle cx="1561.11" cy="701.374" r="1.49117" transform="rotate(30 1561.11 701.374)" fill="#6F6F6F"/>
<ellipse cx="182" cy="731" rx="2" ry="1" fill="#6F6F6F"/>
<ellipse cx="480.5" cy="1062" rx="1.5" ry="1" fill="#6F6F6F"/>
<ellipse cx="171.5" cy="928" rx="1.5" ry="1" fill="#6F6F6F"/>
<circle cx="1152.02" cy="485.191" r="1.49117" transform="rotate(10.9139 1152.02 485.191)" fill="#6F6F6F"/>
<circle cx="457.228" cy="71.7902" r="1.49117" transform="rotate(10.9139 457.228 71.7902)" fill="#6F6F6F"/>
<circle cx="208.164" cy="965.929" r="1.49117" transform="rotate(-46.9318 208.164 965.929)" fill="#6F6F6F"/>
<circle cx="945.343" cy="356.931" r="1.49117" transform="rotate(-21.4506 945.343 356.931)" fill="#6F6F6F"/>
<ellipse cx="729.593" cy="671.137" rx="2.23676" ry="2.98234" transform="rotate(-18.8579 729.593 671.137)" fill="#6F6F6F"/>
<ellipse cx="588.719" cy="687.739" rx="2.23676" ry="2.98234" transform="rotate(-18.8579 588.719 687.739)" fill="#6F6F6F"/>
<ellipse cx="991.5" cy="1099.5" rx="2.5" ry="3.5" fill="#6F6F6F"/>
<circle cx="810.532" cy="511.743" r="1.49117" transform="rotate(-71.37 810.532 511.743)" fill="#6F6F6F"/>
<circle cx="1475" cy="108" r="2" fill="#6F6F6F"/>
<circle cx="1" cy="201" r="1" fill="#6F6F6F"/>
<circle cx="1018.39" cy="569.753" r="1.49117" transform="rotate(-70.2992 1018.39 569.753)" fill="#6F6F6F"/>
<circle cx="1004.62" cy="273.014" r="1.49117" transform="rotate(10.9139 1004.62 273.014)" fill="#6F6F6F"/>
<circle cx="176.266" cy="253.004" r="1.49117" transform="rotate(10.9139 176.266 253.004)" fill="#6F6F6F"/>
<circle cx="573.813" cy="872.465" r="1.49117" transform="rotate(-18.8579 573.813 872.465)" fill="#6F6F6F"/>
<circle cx="1606.5" cy="1090.5" r="1.5" fill="#6F6F6F"/>
<circle cx="852.858" cy="515.274" r="1.49117" transform="rotate(-82.2839 852.858 515.274)" fill="#6F6F6F"/>
<ellipse cx="1444" cy="103.5" rx="1" ry="1.5" fill="#6F6F6F"/>
<circle cx="1003.62" cy="597.726" r="1.49117" transform="rotate(-70.2992 1003.62 597.726)" fill="#6F6F6F"/>
<ellipse cx="460.857" cy="742.441" rx="2.23676" ry="1.49117" transform="rotate(-18.8579 460.857 742.441)" fill="#6F6F6F"/>
<ellipse cx="853" cy="1110" rx="2" ry="1" fill="#6F6F6F"/>
<ellipse cx="1579.04" cy="725.499" rx="2.23676" ry="1.49117" transform="rotate(30 1579.04 725.499)" fill="#6F6F6F"/>
<circle cx="1010.27" cy="243.73" r="1.49117" transform="rotate(10.9139 1010.27 243.73)" fill="#6F6F6F"/>
<circle cx="207.5" cy="741.5" r="1.5" fill="#6F6F6F"/>
<circle cx="943.578" cy="497.201" r="1.49117" transform="rotate(-18.8579 943.578 497.201)" fill="#6F6F6F"/>
<ellipse cx="1621" cy="163" rx="1" ry="2" fill="#6F6F6F"/>
<ellipse cx="508" cy="1074.5" rx="2" ry="1.5" fill="#6F6F6F"/>
<circle cx="334.145" cy="1085.95" r="1.49117" transform="rotate(-65.7897 334.145 1085.95)" fill="#6F6F6F"/>
<circle cx="1234.23" cy="531.414" r="1.49117" transform="rotate(10.9139 1234.23 531.414)" fill="#6F6F6F"/>
<circle cx="480.143" cy="86.8392" r="1.49117" transform="rotate(10.9139 480.143 86.8392)" fill="#6F6F6F"/>
<circle cx="1166.5" cy="1059.5" r="1.5" fill="#6F6F6F"/>
<circle cx="233.1" cy="954.538" r="1.49117" transform="rotate(-46.9318 233.1 954.538)" fill="#6F6F6F"/>
<ellipse cx="760.743" cy="674.68" rx="2.23676" ry="1.49117" transform="rotate(-18.8579 760.743 674.68)" fill="#6F6F6F"/>
<circle cx="485.789" cy="57.5552" r="1.49117" transform="rotate(10.9139 485.789 57.5552)" fill="#6F6F6F"/>
<circle cx="1166.5" cy="1029.5" r="1.5" fill="#6F6F6F"/>
<ellipse cx="9" cy="1022" rx="1" ry="2" fill="#6F6F6F"/>
<circle cx="994.316" cy="363.322" r="1.49117" transform="rotate(-21.4506 994.316 363.322)" fill="#6F6F6F"/>
<circle cx="9" cy="992" r="1" fill="#6F6F6F"/>
<circle cx="983.41" cy="335.565" r="1.49117" transform="rotate(-21.4506 983.41 335.565)" fill="#6F6F6F"/>
<ellipse cx="639.246" cy="697.269" rx="2.23676" ry="2.98234" transform="rotate(-18.8579 639.246 697.269)" fill="#6F6F6F"/>
<circle cx="795.267" cy="67.1139" r="1.49117" transform="rotate(10.9139 795.267 67.1139)" fill="#6F6F6F"/>
<ellipse cx="1472" cy="980" rx="1" ry="2" fill="#6F6F6F"/>
<circle cx="997.004" cy="598.523" r="1.49117" transform="rotate(-70.2992 997.004 598.523)" fill="#6F6F6F"/>
<circle cx="718.48" cy="339.331" r="1.49117" transform="rotate(10.9139 718.48 339.331)" fill="#6F6F6F"/>
<circle cx="1058.41" cy="593.496" r="1.49117" transform="rotate(-18.8579 1058.41 593.496)" fill="#6F6F6F"/>
<ellipse cx="1307" cy="434.5" rx="2" ry="1.5" fill="#6F6F6F"/>
</g>
<defs>
<clipPath id="clip0_2_3">
<rect width="1728" height="1117" fill="white"/>
</clipPath>
</defs>
</svg>
